<?xml version="1.0" standalone="no"?>
<!DOCTYPE svg PUBLIC "-//W3C//DTD SVG 20010904//EN"
 "http://www.w3.org/TR/2001/REC-SVG-20010904/DTD/svg10.dtd">
<svg version="1.0" xmlns="http://www.w3.org/2000/svg"
 width="260.000000pt" height="260.000000pt" viewBox="0 0 260.000000 260.000000"
 preserveAspectRatio="xMidYMid meet">
<metadata>
Created by potrace 1.14, written by Peter Selinger 2001-2017
</metadata>
<g transform="translate(0.000000,260.000000) scale(0.100000,-0.100000)"
fill="#000000" stroke="none">
<path d="M870 1985 c587 -587 1716 -1715 1726 -1724 2 -2 4 523 4 1167 l0
1172 -234 0 -235 0 0 -586 c0 -322 -2 -588 -5 -591 -3 -3 -271 261 -597 586
l-591 591 -342 0 -341 0 615 -615z"/>
<path d="M0 1181 l0 -1181 238 0 238 0 -1 576 c0 317 3 580 6 585 3 6 269
-254 591 -576 l584 -585 350 2 350 3 -1178 1178 -1178 1179 0 -1181z"/>
</g>
</svg>
